<?xml version="1.0" encoding="UTF-8" standalone="no"?>
<svg
   xmlns:dc="http://purl.org/dc/elements/1.1/"
   xmlns:cc="http://creativecommons.org/ns#"
   xmlns:rdf="http://www.w3.org/1999/02/22-rdf-syntax-ns#"
   xmlns:svg="http://www.w3.org/2000/svg"
   xmlns="http://www.w3.org/2000/svg"
   xmlns:sodipodi="http://sodipodi.sourceforge.net/DTD/sodipodi-0.dtd"
   xmlns:inkscape="http://www.inkscape.org/namespaces/inkscape"
   inkscape:version="1.0 (4035a4fb49, 2020-05-01)"
   sodipodi:docname="favicon.svg"
   version="1.1"
   width="512"
   viewBox="0 0 512 512"
   height="512"
   enable-background="new 0 0 512 512"
   id="Capa_1">
  <metadata
     id="metadata74">
    <rdf:RDF>
      <cc:Work
         rdf:about="">
        <dc:format>image/svg+xml</dc:format>
        <dc:type
           rdf:resource="http://purl.org/dc/dcmitype/StillImage" />
      </cc:Work>
    </rdf:RDF>
  </metadata>
  <defs
     id="defs72" />
  <sodipodi:namedview
     inkscape:snap-bbox="false"
     inkscape:current-layer="layer1"
     inkscape:window-maximized="1"
     inkscape:window-y="-9"
     inkscape:window-x="-9"
     inkscape:cy="99.735147"
     inkscape:cx="-637.23449"
     inkscape:zoom="0.5731432"
     showgrid="false"
     id="namedview70"
     inkscape:window-height="1001"
     inkscape:window-width="1920"
     inkscape:pageshadow="2"
     inkscape:pageopacity="0"
     guidetolerance="10"
     gridtolerance="10"
     objecttolerance="10"
     borderopacity="1"
     bordercolor="#666666"
     pagecolor="#ffffff"
     inkscape:document-rotation="0" />
  <g
     inkscape:label="bg"
     id="layer1"
     inkscape:groupmode="layer">
    <rect
       rx="53"
       y="1.7447647"
       x="0"
       height="512.08844"
       width="512.08844"
       id="rect87"
       style="fill:#ff5555" />
  </g>
  <g
     id="g67"
     transform="matrix(0.67967211,0,0,0.65955812,81.131556,81.918819)"
     style="fill:#f9f9f9">
    <path
       id="path43"
       fill="#d0d5f7"
       d="m 405.988,251.004 c -6.721,0 -12.836,-4.55 -14.54,-11.366 -2.01,-8.036 2.877,-16.181 10.914,-18.189 l 57.276,-14.319 c 6.689,-1.673 11.361,-7.656 11.361,-14.552 V 136 c 0,-8.271 -6.729,-15 -15,-15 h -50 c -8.284,0 -15,-6.716 -15,-15 0,-8.284 6.716,-15 15,-15 h 50 c 24.813,0 45,20.187 45,45 v 56.577 c 0,20.687 -14.017,38.638 -34.085,43.655 l -57.277,14.319 c -1.22,0.306 -2.445,0.453 -3.649,0.453 z"
       style="fill:#c8beb7" />
    <path
       id="path45"
       fill="#f0f1ff"
       d="M 406,151 H 106 c -8.284,0 -15,-6.716 -15,-15 V 66 c 0,-8.284 6.716,-15 15,-15 h 300 c 8.284,0 15,6.716 15,15 v 70 c 0,8.284 -6.716,15 -15,15 z"
       style="fill:#f2f2f2" />
    <path
       id="path47"
       fill="#dce7fb"
       d="M 406,51 H 256 v 100 h 150 c 8.284,0 15,-6.716 15,-15 V 66 c 0,-8.284 -6.716,-15 -15,-15 z"
       style="fill:#ececec" />
    <path
       id="path49"
       fill="#f09040"
       d="m 91,136 v 150 c 0,63.411 51.589,115 115,115 h 100 c 63.411,0 115,-51.589 115,-115 V 136 Z"
       style="fill:#ffffff" />
    <path
       id="path51"
       fill="#cd7444"
       d="m 256,401 h 50 c 63.411,0 115,-51.589 115,-115 V 136 H 256 Z"
       style="fill:#f9f9f9" />
    <g
       id="g61"
       style="fill:#f9f9f9">
      <path
         id="path53"
         fill="#85e17c"
         d="m 241.555,316.286 c -13.551,0 -23.388,-1.691 -24.381,-1.869 -6.18,-1.105 -11.018,-5.943 -12.124,-12.124 -0.451,-2.519 -10.665,-62.065 21.837,-94.565 32.502,-32.501 92.047,-22.288 94.565,-21.837 6.181,1.106 11.018,5.943 12.124,12.124 0.45,2.519 10.665,62.063 -21.837,94.565 -19.697,19.698 -49.334,23.706 -70.184,23.706 z"
         style="fill:#00d4aa" />
      <path
         id="path55"
         fill="#59b154"
         d="m 321.453,185.891 c -1.869,-0.335 -35.134,-6.039 -65.453,4.315 v 125.41 c 18.662,-1.773 40.267,-7.562 55.74,-23.036 32.502,-32.502 22.287,-92.047 21.837,-94.565 -1.106,-6.181 -5.943,-11.018 -12.124,-12.124 z"
         style="fill:#00aa88" />
      <path
         id="path57"
         fill="#59b154"
         d="m 191.532,342.936 c -3.839,0 -7.678,-1.465 -10.606,-4.394 -5.858,-5.857 -5.858,-15.355 0,-21.213 l 80,-80 c 5.857,-5.857 15.355,-5.857 21.213,0 5.858,5.857 5.858,15.355 0,21.213 l -80,80 c -2.929,2.929 -6.768,4.394 -10.607,4.394 z"
         style="fill:#00d4aa" />
      <path
         id="path59"
         fill="#00864f"
         d="M 260.926,237.329 256,242.255 v 42.426 l 26.139,-26.139 c 5.858,-5.857 5.858,-15.355 0,-21.213 -5.858,-5.857 -15.356,-5.857 -21.213,0 z"
         style="fill:#00aa88" />
    </g>
    <path
       id="path63"
       fill="#f0f1ff"
       d="M 497,386 H 15 c -8.284,0 -15,6.716 -15,15 0,33.137 26.863,60 60,60 h 392 c 33.137,0 60,-26.863 60,-60 0,-8.284 -6.716,-15 -15,-15 z"
       style="fill:#f9f9f9;stroke:#1a1a1a" />
    <path
       id="path65"
       fill="#dce7fb"
       d="M 497,386 H 256 v 75 h 196 c 33.137,0 60,-26.863 60,-60 0,-8.284 -6.716,-15 -15,-15 z"
       style="fill:#f9f9f9" />
  </g>
</svg>
