<?xml version="1.0" encoding="UTF-8" standalone="no"?>
<svg
   xmlns:dc="http://purl.org/dc/elements/1.1/"
   xmlns:cc="http://creativecommons.org/ns#"
   xmlns:rdf="http://www.w3.org/1999/02/22-rdf-syntax-ns#"
   xmlns:svg="http://www.w3.org/2000/svg"
   xmlns="http://www.w3.org/2000/svg"
   xmlns:sodipodi="http://sodipodi.sourceforge.net/DTD/sodipodi-0.dtd"
   xmlns:inkscape="http://www.inkscape.org/namespaces/inkscape"
   inkscape:version="1.0 (4035a4fb49, 2020-05-01)"
   sodipodi:docname="favicon.svg"
   version="1.1"
   width="512"
   viewBox="0 0 512 512"
   height="512"
   enable-background="new 0 0 512 512"
   id="Capa_1">
  <metadata
     id="metadata74">
    <rdf:RDF>
      <cc:Work
         rdf:about="">
        <dc:format>image/svg+xml</dc:format>
        <dc:type
           rdf:resource="http://purl.org/dc/dcmitype/StillImage" />
      </cc:Work>
    </rdf:RDF>
  </metadata>
  <defs
     id="defs72" />
  <sodipodi:namedview
     inkscape:snap-bbox="false"
     inkscape:current-layer="g67"
     inkscape:window-maximized="1"
     inkscape:window-y="-9"
     inkscape:window-x="-9"
     inkscape:cy="126.79088"
     inkscape:cx="77.134548"
     inkscape:zoom="0.81054689"
     showgrid="false"
     id="namedview70"
     inkscape:window-height="1001"
     inkscape:window-width="1920"
     inkscape:pageshadow="2"
     inkscape:pageopacity="0"
     guidetolerance="10"
     gridtolerance="10"
     objecttolerance="10"
     borderopacity="1"
     bordercolor="#666666"
     pagecolor="#ffffff"
     inkscape:document-rotation="0" />
  <g
     inkscape:label="bg"
     id="layer1"
     inkscape:groupmode="layer">
    <rect
       rx="55.524555"
       y="-3.1663568"
       x="-2.4436545"
       height="514.50824"
       width="514.5083"
       id="rect87"
       style="fill:#162d50;stroke:#333333;stroke-width:1.04764" />
  </g>
  <g
     id="g67"
     transform="matrix(0.8768773,0,0,0.85092729,30.647027,42.549354)"
     style="fill:#f9f9f9">
    <path
       id="path43"
       fill="#d0d5f7"
       d="m 405.988,251.004 c -6.721,0 -12.836,-4.55 -14.54,-11.366 -2.01,-8.036 2.877,-16.181 10.914,-18.189 l 57.276,-14.319 c 6.689,-1.673 11.361,-7.656 11.361,-14.552 V 136 c 0,-8.271 -6.729,-15 -15,-15 h -50 c -8.284,0 -15,-6.716 -15,-15 0,-8.284 6.716,-15 15,-15 h 50 c 24.813,0 45,20.187 45,45 v 56.577 c 0,20.687 -14.017,38.638 -34.085,43.655 l -57.277,14.319 c -1.22,0.306 -2.445,0.453 -3.649,0.453 z"
       style="fill:#d35f5f" />
    <path
       id="path45"
       fill="#f0f1ff"
       d="M 406,151 H 106 c -8.284,0 -15,-6.716 -15,-15 V 66 c 0,-8.284 6.716,-15 15,-15 h 300 c 8.284,0 15,6.716 15,15 v 70 c 0,8.284 -6.716,15 -15,15 z"
       style="fill:#ff8080" />
    <path
       id="path47"
       fill="#dce7fb"
       d="M 406,51 H 256 v 100 h 150 c 8.284,0 15,-6.716 15,-15 V 66 c 0,-8.284 -6.716,-15 -15,-15 z"
       style="fill:#ff7f2a" />
    <path
       id="path49"
       fill="#f09040"
       d="m 91,136 v 150 c 0,63.411 51.589,115 115,115 h 100 c 63.411,0 115,-51.589 115,-115 V 136 Z"
       style="fill:#ffaaaa" />
    <path
       id="path51"
       fill="#cd7444"
       d="m 256,401 h 50 c 63.411,0 115,-51.589 115,-115 V 136 H 256 Z"
       style="fill:#ff9955" />
    <path
       id="path63"
       fill="#f0f1ff"
       d="M 497,386 H 15 c -8.284,0 -15,6.716 -15,15 0,33.137 26.863,60 60,60 h 392 c 33.137,0 60,-26.863 60,-60 0,-8.284 -6.716,-15 -15,-15 z"
       style="fill:#ffaaaa;stroke:#1a1a1a" />
    <path
       id="path65"
       fill="#dce7fb"
       d="M 497,386 H 256 v 75 h 196 c 33.137,0 60,-26.863 60,-60 0,-8.284 -6.716,-15 -15,-15 z"
       style="fill:#ff9955" />
  </g>
</svg>
